<?xml version="1.0" standalone="no"?>
<!DOCTYPE svg PUBLIC "-//W3C//DTD SVG 20010904//EN"
 "http://www.w3.org/TR/2001/REC-SVG-20010904/DTD/svg10.dtd">
<svg version="1.0" xmlns="http://www.w3.org/2000/svg"
 width="360.000000pt" height="360.000000pt" viewBox="0 0 360.000000 360.000000"
 preserveAspectRatio="xMidYMid meet">

<g transform="translate(0.000000,360.000000) scale(0.100000,-0.100000)"
fill="#000000" stroke="none">
<path d="M1560 3129 c-207 -28 -456 -157 -591 -308 -69 -77 -170 -231 -167
-255 3 -16 148 -126 167 -126 3 0 24 35 46 78 50 95 188 239 285 295 144 83
334 120 499 97 428 -59 722 -447 662 -871 -24 -170 -85 -299 -198 -420 -170
-180 -363 -258 -607 -246 -130 6 -204 24 -303 72 -204 100 -356 290 -413 516
-11 43 -17 49 -121 119 -60 40 -112 70 -116 67 -15 -15 18 -213 53 -316 87
-261 264 -462 517 -584 282 -137 633 -125 903 29 43 24 81 43 85 42 4 -2 60
-68 125 -147 66 -80 198 -240 294 -356 96 -116 190 -230 209 -253 69 -86 166
-115 289 -87 80 18 131 56 164 118 31 60 33 213 2 272 -19 37 -187 182 -733
633 l-101 83 19 27 c100 143 170 401 157 581 -31 409 -277 746 -650 886 -140
53 -326 74 -476 54z"/>
<path d="M372 2753 c-30 -11 -42 -19 -38 -30 3 -8 2 -11 -3 -8 -5 3 -13 0 -17
-6 -3 -6 -2 -14 4 -18 7 -4 4 -15 -9 -31 -11 -15 -17 -18 -13 -7 4 10 1 17 -6
17 -6 0 -8 5 -4 11 4 8 9 7 16 -2 8 -12 9 -11 6 0 -3 8 -9 16 -14 18 -13 4
-43 -49 -36 -66 2 -8 0 -11 -6 -7 -6 4 -8 -2 -4 -16 3 -14 2 -19 -6 -14 -9 5
-12 -6 -12 -38 0 -33 4 -46 14 -46 8 0 17 -8 20 -17 3 -10 4 2 1 27 -3 43 -3
44 7 13 6 -18 7 -40 4 -50 -7 -17 -8 -17 -22 1 -8 11 -14 16 -14 12 0 -14 29
-63 46 -77 15 -12 16 -12 9 0 -5 10 -4 12 3 7 7 -4 12 -14 12 -21 0 -24 74
-55 130 -55 31 0 49 4 45 10 -3 5 0 7 8 5 7 -3 28 1 46 8 l33 14 -23 17 c-13
9 -18 16 -11 16 6 0 12 4 12 10 0 6 -17 7 -42 3 -140 -22 -207 26 -194 141 7
69 9 77 13 72 3 -2 21 7 41 21 52 35 121 29 165 -15 26 -27 30 -38 30 -84 0
-67 -6 -107 -15 -102 -4 2 -9 0 -12 -5 -3 -5 1 -12 10 -15 9 -4 14 -13 10 -21
-4 -11 9 -25 42 -45 26 -16 60 -39 75 -51 24 -18 30 -20 38 -8 7 11 9 11 9 1
0 -7 5 -10 10 -7 6 3 10 2 10 -3 0 -25 -33 -16 -94 25 -37 25 -69 43 -71 41
-8 -7 181 -128 200 -128 10 0 15 -3 12 -7 -11 -10 60 -53 77 -47 9 3 13 10 10
16 -3 5 -12 7 -20 4 -22 -8 -17 2 7 15 13 7 19 7 15 1 -3 -6 -2 -13 4 -17 6
-4 8 -10 5 -15 -3 -4 2 -10 10 -14 8 -3 15 -10 15 -16 0 -6 -7 -4 -16 4 -8 9
-21 16 -27 16 -7 0 -3 -8 8 -16 29 -23 58 -38 51 -26 -3 5 6 8 20 6 33 -3 39
-10 19 -18 -11 -4 -14 -2 -9 6 4 7 3 8 -4 4 -7 -4 -12 -9 -12 -11 0 -11 87
-61 99 -57 8 2 11 0 7 -6 -8 -13 39 -43 56 -37 8 3 22 -1 33 -9 11 -9 15 -16
8 -16 -6 0 -15 5 -18 10 -3 6 -12 10 -18 10 -7 -1 -1 -10 12 -21 13 -11 31
-17 38 -15 8 3 12 2 9 -3 -9 -14 121 -94 136 -84 37 23 71 -2 46 -34 -6 -7 -2
-16 10 -25 12 -8 21 -31 25 -59 8 -61 28 -104 39 -87 5 9 8 7 9 -7 1 -11 1
-23 1 -26 -2 -14 79 -61 105 -63 15 -1 34 -5 41 -9 7 -5 12 -3 12 3 0 7 12 9
29 7 44 -7 126 43 151 93 31 61 36 120 14 179 -17 49 -17 52 1 88 10 21 20 54
21 73 3 33 2 34 -12 16 -8 -11 -14 -27 -15 -35 0 -9 -4 -6 -10 8 -5 13 -7 26
-4 29 3 3 5 -1 5 -9 0 -8 6 -5 15 8 20 29 50 20 34 -9 -6 -11 -8 -22 -6 -25 3
-3 12 8 21 25 8 16 12 32 9 36 -4 3 -1 6 5 6 14 0 47 60 44 77 -3 15 28 77 35
70 2 -3 -3 -17 -13 -31 -9 -15 -14 -29 -11 -32 3 -3 15 12 27 34 20 36 27 40
74 46 28 4 61 14 73 22 21 13 27 12 62 -6 22 -11 42 -24 45 -29 4 -5 21 -8 39
-7 26 2 33 -1 33 -15 0 -17 -2 -17 -18 -2 -10 9 -20 14 -23 11 -9 -9 45 -39
57 -32 6 4 8 3 5 -3 -8 -13 40 -46 53 -38 6 3 18 1 27 -5 15 -9 14 -10 -7 -5
-24 6 -24 5 -6 -10 12 -9 24 -11 29 -6 13 13 -9 169 -28 198 -15 23 -43 34
-29 11 4 -7 3 -8 -5 -4 -6 4 -9 11 -6 15 7 13 -70 60 -91 57 -11 -2 -13 -1 -6
1 8 3 10 9 4 16 -5 7 -12 33 -15 60 -15 113 -99 189 -208 189 -119 0 -224
-122 -205 -239 11 -61 23 -72 35 -32 l11 34 -5 -35 c-3 -19 -18 -61 -34 -92
-18 -36 -24 -55 -15 -51 8 3 14 0 14 -7 0 -6 -4 -9 -9 -5 -15 8 -35 -17 -101
-128 l-62 -104 -53 -6 c-29 -3 -61 -11 -72 -18 -18 -10 -36 -1 -152 75 -73 47
-136 86 -142 86 -5 0 -9 4 -9 9 0 5 -16 8 -35 7 -21 -2 -33 1 -32 8 1 6 -7 10
-18 8 -16 -2 -17 -1 -6 7 10 6 22 4 38 -6 13 -9 26 -14 29 -11 8 9 -135 100
-146 93 -6 -4 -9 -2 -8 5 2 6 -10 18 -27 28 -16 9 -32 20 -35 23 -3 4 -22 5
-42 4 -26 -2 -41 2 -54 16 -19 21 -43 27 -26 6 8 -10 6 -13 -7 -13 -10 0 -18
6 -18 13 0 7 4 13 9 13 5 0 4 9 -2 21 -7 11 -9 23 -6 27 3 3 6 0 6 -6 0 -7 3
-11 8 -11 20 3 25 -2 12 -12 -12 -8 -9 -9 10 -5 14 3 19 3 12 0 -10 -5 -9 -10
4 -25 21 -23 42 -25 23 -2 -12 14 -10 14 14 -2 15 -10 30 -16 33 -13 4 4 -93
73 -144 102 -7 4 -21 2 -30 -6 -15 -11 -16 -11 -5 3 15 18 5 30 -58 67 -33 20
-37 27 -42 77 -3 34 -14 67 -28 87 -40 57 -45 59 -64 38 -21 -24 -31 -25 -38
-6 -4 10 1 12 16 9 18 -4 20 -3 7 7 -13 10 -12 11 3 6 40 -13 9 20 -34 36 -54
21 -81 21 -137 1z m31 -10 c3 -5 -6 -9 -20 -10 -19 -1 -22 1 -12 8 17 11 26
11 32 2z m84 -13 c1 -11 -2 -22 -8 -25 -5 -3 -6 1 -3 9 4 10 1 16 -7 16 -11 0
-11 3 1 10 8 5 15 10 15 10 1 0 1 -9 2 -20z m-79 -19 c11 -7 11 -9 -1 -14 -9
-3 -18 1 -21 9 -6 16 2 18 22 5z m49 3 c-3 -3 -12 -4 -19 -1 -8 3 -5 6 6 6 11
1 17 -2 13 -5z m152 -58 c0 -6 -3 -6 -6 2 -2 6 -9 12 -15 12 -6 0 -8 -6 -5
-13 3 -8 -3 -13 -17 -14 -11 0 -15 1 -8 4 22 9 13 25 -10 17 -22 -6 -22 -6 2
14 23 19 26 19 43 5 9 -9 17 -21 16 -27z m-232 28 c-3 -3 -12 -4 -19 -1 -8 3
-5 6 6 6 11 1 17 -2 13 -5z m-106 -37 c-10 -9 -11 -8 -5 6 3 10 9 15 12 12 3
-3 0 -11 -7 -18z m1759 1 c0 -5 -5 -6 -11 -2 -6 3 -15 0 -20 -7 -7 -11 -9 -11
-9 -1 0 10 -11 12 -42 8 -30 -4 -36 -3 -18 3 34 11 100 11 100 -1z m110 -60
c0 -4 -7 -8 -15 -8 -13 0 -14 -4 -5 -21 14 -26 7 -35 -10 -14 -7 8 -9 15 -4
15 4 0 -1 7 -12 16 -10 8 -14 13 -7 10 6 -3 19 -3 28 0 14 6 13 10 -7 33 l-23
26 28 -24 c15 -14 27 -28 27 -33z m-1863 20 c-3 -8 -6 -5 -6 6 -1 11 2 17 5
13 3 -3 4 -12 1 -19z m1743 12 c-8 -5 -19 -10 -25 -10 -5 0 -3 5 5 10 8 5 20
10 25 10 6 0 3 -5 -5 -10z m71 -7 c13 -15 12 -15 -8 -4 -24 12 -29 21 -14 21
5 0 15 -7 22 -17z m-1794 -25 c-3 -7 -5 -2 -5 12 0 14 2 19 5 13 2 -7 2 -19 0
-25z m1588 22 c-3 -5 -11 -10 -16 -10 -6 0 -7 5 -4 10 3 6 11 10 16 10 6 0 7
-4 4 -10z m182 -14 c5 -4 -6 -5 -22 -1 -23 5 -26 4 -15 -4 8 -6 23 -11 32 -11
23 0 58 -69 58 -115 0 -20 5 -46 11 -58 9 -17 9 -19 0 -11 -9 8 -21 2 -45 -22
-19 -19 -41 -34 -51 -34 -9 0 -14 -4 -11 -9 8 -13 -101 14 -119 29 -22 19 -38
49 -45 90 -3 19 -11 34 -18 33 -6 -2 -9 4 -5 13 4 11 8 12 13 4 5 -8 9 -7 14
5 3 9 3 22 -1 27 -4 7 -1 8 7 3 10 -6 12 -4 7 8 -3 9 -3 16 1 14 11 -3 53 29
46 36 -3 3 4 3 17 0 14 -4 20 -2 16 4 -8 12 98 11 110 -1z m-1467 -40 c0 -26
-6 -18 -14 19 -5 22 -4 26 4 15 5 -8 10 -24 10 -34z m1300 29 c-7 -9 -15 -13
-17 -11 -7 7 7 26 19 26 6 0 6 -6 -2 -15z m-1263 -17 c-3 -8 -6 -5 -6 6 -1 11
2 17 5 13 3 -3 4 -12 1 -19z m1201 5 c-2 -12 3 -17 12 -15 11 2 11 -1 -2 -11
-10 -8 -18 -20 -19 -28 0 -8 -4 -4 -9 9 -7 15 -6 29 3 42 15 25 19 25 15 3z
m342 -67 c-1 -17 -3 -16 -16 9 -11 22 -13 24 -10 7 2 -12 0 -20 -5 -17 -5 4
-8 17 -7 30 2 23 3 23 20 8 10 -9 18 -26 18 -37z m-1868 -44 c-3 -8 1 -10 12
-6 9 3 16 1 16 -6 0 -6 -4 -8 -10 -5 -5 3 -10 1 -10 -4 0 -6 5 -11 10 -11 6 0
10 -6 10 -12 -1 -32 -46 45 -47 80 l-1 37 12 -30 c7 -16 11 -36 8 -43z m308
64 c0 -3 -4 -8 -10 -11 -5 -3 -10 -1 -10 4 0 6 5 11 10 11 6 0 10 -2 10 -4z
m-44 -34 c-18 -16 -18 -16 -6 6 6 13 14 21 18 18 3 -4 -2 -14 -12 -24z m1230
-40 c1 -65 1 -65 -7 -22 -8 37 -5 90 4 90 1 0 3 -30 3 -68z m-1131 40 c17 -12
36 -52 25 -52 -6 0 -15 12 -20 26 -7 18 -15 24 -26 20 -8 -3 -12 -2 -9 4 7 12
16 12 30 2z m1196 -107 c8 -16 25 -35 37 -41 13 -6 19 -14 14 -18 -25 -15 -84
79 -81 130 1 11 4 7 8 -11 4 -16 14 -43 22 -60z m313 70 c-4 -8 -11 -15 -16
-15 -6 0 -5 6 2 15 7 8 14 15 16 15 2 0 1 -7 -2 -15z m-32 -20 c3 -13 1 -22
-3 -19 -9 5 -13 44 -5 44 2 0 6 -11 8 -25z m-1695 -20 c28 0 55 -4 60 -8 4 -5
-4 -6 -19 -2 -14 4 -34 2 -45 -3 -13 -7 -30 -4 -58 9 -22 11 -29 16 -15 12 14
-4 48 -8 77 -8z m1733 11 c0 -3 -4 -8 -10 -11 -5 -3 -10 -1 -10 4 0 6 5 11 10
11 6 0 10 -2 10 -4z m-1460 -10 c0 -3 -4 -8 -10 -11 -5 -3 -10 -1 -10 4 0 6 5
11 10 11 6 0 10 -2 10 -4z m-93 -30 c0 -8 -6 -12 -15 -9 -11 5 -11 7 0 14 7 5
13 9 14 9 0 0 1 -6 1 -14z m-110 -2 c-3 -3 -12 -4 -19 -1 -8 3 -5 6 6 6 11 1
17 -2 13 -5z m1630 -16 c-3 -8 -6 -5 -6 6 -1 11 2 17 5 13 3 -3 4 -12 1 -19z
m133 -14 c0 -2 -9 0 -20 6 -11 6 -20 13 -20 16 0 2 9 0 20 -6 11 -6 20 -13 20
-16z m-188 -6 c-7 -7 -12 -8 -12 -2 0 6 3 14 7 17 3 4 9 5 12 2 2 -3 -1 -11
-7 -17z m38 7 c0 -8 -4 -15 -10 -15 -5 0 -7 7 -4 15 4 8 8 15 10 15 2 0 4 -7
4 -15z m-1430 -5 c0 -5 -2 -10 -4 -10 -3 0 -8 5 -11 10 -3 6 -1 10 4 10 6 0
11 -4 11 -10z m1560 -10 c13 -11 19 -20 13 -20 -5 0 -18 9 -28 20 -10 11 -16
20 -13 20 3 0 15 -9 28 -20z m-400 6 c0 -3 -4 -8 -10 -11 -5 -3 -10 -1 -10 4
0 6 5 11 10 11 6 0 10 -2 10 -4z m200 -11 c-7 -9 -15 -13 -19 -10 -3 3 1 10 9
15 21 14 24 12 10 -5z m-110 -15 c0 -5 -4 -10 -10 -10 -5 0 -10 5 -10 10 0 6
5 10 10 10 6 0 10 -4 10 -10z m195 -19 c0 -23 -3 -27 -13 -19 -11 9 -11 13 0
19 10 7 10 9 -2 9 -13 0 -13 1 0 10 8 5 15 10 15 10 1 0 1 -13 0 -29z m-322 4
c-3 -9 -8 -14 -10 -11 -3 3 -2 9 2 15 9 16 15 13 8 -4z m-1053 -5 c-12 -8 -12
-10 -1 -10 8 0 12 -2 9 -5 -3 -3 -13 -2 -22 1 -14 5 -15 9 -4 15 7 5 18 9 23
9 6 0 3 -5 -5 -10z m1021 -23 c-10 -9 -11 -8 -5 6 3 10 9 15 12 12 3 -3 0 -11
-7 -18z m282 16 c-7 -2 -19 -2 -25 0 -7 3 -2 5 12 5 14 0 19 -2 13 -5z m260
-13 c3 -11 1 -20 -4 -20 -5 0 -9 9 -9 20 0 11 2 20 4 20 2 0 6 -9 9 -20z
m-1348 1 c3 -6 -5 -15 -17 -21 -21 -10 -22 -10 -5 3 14 11 15 16 5 20 -9 4 -9
6 -1 6 6 1 14 -3 18 -8z m-230 -11 c3 -5 2 -10 -4 -10 -5 0 -13 5 -16 10 -3 6
-2 10 4 10 5 0 13 -4 16 -10z m1075 -25 c10 -14 10 -17 1 -8 -7 6 -20 9 -27 6
-8 -3 -14 0 -14 7 0 6 5 8 10 5 6 -3 10 -1 10 6 0 7 1 10 3 8 1 -2 9 -13 17
-24z m120 21 c0 -2 -7 -6 -15 -10 -8 -3 -15 -1 -15 4 0 6 7 10 15 10 8 0 15
-2 15 -4z m-910 -26 c0 -5 -2 -10 -4 -10 -3 0 -8 5 -11 10 -3 6 -1 10 4 10 6
0 11 -4 11 -10z m1301 -22 c-3 -21 -6 -26 -9 -15 -3 17 3 47 11 47 2 0 1 -15
-2 -32z m-1521 8 c-7 -7 -13 -7 -20 0 -6 6 -3 10 10 10 13 0 16 -4 10 -10z
m130 -7 c0 -4 -7 -6 -15 -3 -8 4 -15 10 -15 15 0 4 7 6 15 3 8 -4 15 -10 15
-15z m150 -16 c0 -3 -7 -3 -15 0 -22 9 -30 -14 -10 -30 11 -7 15 -13 9 -13 -5
0 -18 8 -29 16 -19 14 -19 16 -2 25 15 9 16 13 5 27 -10 12 -7 12 15 -2 15
-10 27 -21 27 -23z m1207 20 c0 -10 -4 -10 -11 -3 -5 5 -15 10 -20 10 -6 -1
-1 -9 11 -19 19 -16 20 -20 7 -25 -8 -3 -12 -2 -9 3 3 6 -2 14 -11 19 -9 5
-14 14 -10 20 9 15 43 11 43 -5z m-1383 -29 c5 -14 4 -15 -9 -4 -17 14 -19 20
-6 20 5 0 12 -7 15 -16z m810 -5 c-3 -6 0 -16 7 -21 11 -8 10 -9 -4 -4 -12 4
-21 -3 -31 -27 -8 -18 -15 -26 -15 -18 -1 14 37 81 45 81 3 0 2 -5 -2 -11z
m136 7 c0 -3 -4 -8 -10 -11 -5 -3 -10 -1 -10 4 0 6 5 11 10 11 6 0 10 -2 10
-4z m-821 -29 c-2 -1 -13 -9 -24 -17 -19 -14 -19 -14 -6 3 7 9 18 17 24 17 6
0 8 -1 6 -3z m802 -44 c-12 -20 -14 -14 -5 12 4 9 9 14 11 11 3 -2 0 -13 -6
-23z m-631 -3 c20 -17 21 -20 6 -26 -10 -4 -23 -1 -29 5 -9 9 -7 11 8 5 20 -7
20 -7 1 14 -24 27 -16 28 14 2z m-225 -16 l30 -26 -35 23 c-45 29 -45 29 -34
29 5 0 23 -12 39 -26z m29 10 c3 -8 2 -12 -4 -9 -6 3 -10 10 -10 16 0 14 7 11
14 -7z m706 -4 c0 -5 -5 -10 -11 -10 -5 0 -7 5 -4 10 3 6 8 10 11 10 2 0 4 -4
4 -10z m-452 -35 c-3 -3 -9 2 -12 12 -6 14 -5 15 5 6 7 -7 10 -15 7 -18z m382
-15 c-6 -12 -14 -20 -17 -17 -2 3 1 14 8 26 7 11 15 18 17 16 2 -2 -2 -13 -8
-25z m-564 4 c18 -14 18 -15 -4 -4 -12 6 -28 8 -34 4 -7 -4 -8 -3 -4 4 10 16
18 15 42 -4z m94 -4 c0 -5 -2 -10 -4 -10 -3 0 -8 5 -11 10 -3 6 -1 10 4 10 6
0 11 -4 11 -10z m-45 -10 c3 -5 2 -10 -4 -10 -5 0 -13 5 -16 10 -3 6 -2 10 4
10 5 0 13 -4 16 -10z m150 0 c3 -5 1 -10 -4 -10 -6 0 -11 5 -11 10 0 6 2 10 4
10 3 0 8 -4 11 -10z m-115 -31 c0 -6 -4 -7 -10 -4 -5 3 -10 11 -10 16 0 6 5 7
10 4 6 -3 10 -11 10 -16z m184 0 c-3 -5 0 -9 7 -9 7 0 10 -2 7 -5 -9 -9 -38 7
-38 21 0 8 6 11 15 8 8 -4 12 -10 9 -15z m-70 2 c3 -5 0 -11 -7 -14 -8 -3 -14
1 -14 9 0 16 13 19 21 5z m369 -15 c4 -10 1 -13 -8 -9 -8 3 -12 9 -9 14 7 12
11 11 17 -5z m-459 -21 c-10 -7 -22 -11 -27 -8 -12 7 0 19 23 20 21 2 21 1 4
-12z m346 11 c0 -3 -4 -8 -10 -11 -5 -3 -10 -1 -10 4 0 6 5 11 10 11 6 0 10
-2 10 -4z m223 -13 c-3 -7 -6 -13 -8 -13 -2 0 -5 6 -8 13 -3 8 1 14 8 14 7 0
11 -6 8 -14z m-173 2 c0 -2 -9 -9 -20 -15 -12 -6 -20 -7 -20 -1 0 5 8 12 18
14 9 3 18 5 20 6 1 0 2 -1 2 -4z m60 -5 c24 -15 7 -18 -20 -3 -14 7 -18 13
-10 13 8 0 22 -4 30 -10z m-410 -11 c11 -8 9 -9 -10 -3 -22 6 -24 5 -11 -10 8
-10 21 -14 30 -11 12 5 13 3 4 -6 -9 -9 -17 -7 -37 8 -35 28 -12 48 24 22z
m270 1 c8 -5 11 -10 5 -10 -5 0 -17 5 -25 10 -8 5 -10 10 -5 10 6 0 17 -5 25
-10z m102 -7 c-12 -2 -20 -9 -17 -14 4 -5 -4 -9 -16 -9 -22 0 -22 0 -3 15 10
8 28 14 39 13 17 -1 17 -1 -3 -5z m-163 -45 c13 -21 13 -22 -2 -10 -13 11 -17
10 -26 -5 -6 -10 -11 -13 -11 -6 0 6 5 15 10 18 6 4 8 11 5 16 -4 5 -2 9 2 9
5 0 14 -10 22 -22z m58 16 c-3 -3 -12 -4 -19 -1 -8 3 -5 6 6 6 11 1 17 -2 13
-5z m128 -14 c4 -6 11 -7 17 -4 7 4 8 2 4 -4 -4 -7 -3 -12 3 -12 17 0 41 -57
41 -98 0 -55 -35 -103 -88 -122 -114 -40 -213 83 -155 193 9 18 16 36 15 40
-1 5 2 6 8 2 5 -3 18 -1 27 4 23 13 120 14 128 1z m77 -9 c-11 -7 -11 -16 2
-55 9 -26 16 -57 15 -69 0 -12 -6 1 -13 28 -7 28 -18 60 -24 72 -9 17 -9 22 1
26 20 9 33 7 19 -2z m-337 -21 c3 -5 1 -10 -4 -10 -6 0 -11 5 -11 10 0 6 2 10
4 10 3 0 8 -4 11 -10z m360 0 c3 -5 1 -10 -4 -10 -6 0 -11 5 -11 10 0 6 2 10
4 10 3 0 8 -4 11 -10z m-330 -20 c3 -5 1 -10 -4 -10 -6 0 -11 5 -11 10 0 6 2
10 4 10 3 0 8 -4 11 -10z m-40 -10 c3 -6 -1 -7 -9 -4 -18 7 -21 14 -7 14 6 0
13 -4 16 -10z m388 -11 c-8 -8 -13 -7 -18 2 -5 8 -4 10 3 5 7 -4 12 -2 12 5 0
7 3 9 7 6 4 -4 2 -12 -4 -18z m5 -70 c-3 -20 -5 -19 -9 9 -3 20 -2 29 4 23 5
-5 7 -19 5 -32z m-373 21 c3 -5 1 -10 -4 -10 -6 0 -11 5 -11 10 0 6 2 10 4 10
3 0 8 -4 11 -10z m45 -20 c0 -5 -8 -10 -17 -10 -15 0 -16 2 -3 10 19 12 20 12
20 0z m-36 -35 c5 -22 4 -26 -4 -15 -5 8 -10 24 -10 34 0 26 6 18 14 -19z m47
-6 c8 -15 8 -19 0 -15 -6 4 -11 3 -11 -3 0 -5 5 -13 10 -16 15 -9 12 -22 -5
-22 -8 0 -12 4 -9 9 3 5 2 14 -4 21 -5 7 -12 20 -15 30 -9 25 20 22 34 -4z
m260 -21 c-11 -18 -21 -29 -21 -25 0 13 33 67 38 62 3 -2 -5 -19 -17 -37z m42
-13 c-3 -9 -8 -14 -10 -11 -3 3 -2 9 2 15 9 16 15 13 8 -4z m-263 -26 c0 -5
-4 -9 -8 -9 -5 0 -9 7 -9 15 0 8 4 12 9 9 4 -3 8 -9 8 -15z m229 -15 c-19 -23
-46 -35 -46 -21 0 7 -4 21 -9 31 -6 16 -4 18 9 13 9 -4 24 -10 32 -13 10 -4
15 0 16 12 0 12 3 14 6 6 3 -7 -1 -20 -8 -28z m-262 0 c-3 -3 -12 -4 -19 -1
-8 3 -5 6 6 6 11 1 17 -2 13 -5z m34 -13 c-11 -7 -9 -10 8 -16 13 -4 20 -9 18
-11 -2 -3 -16 1 -31 7 -19 9 -23 15 -14 21 7 4 18 8 23 8 6 0 4 -4 -4 -9z m66
3 c-3 -3 -12 -4 -19 -1 -8 3 -5 6 6 6 11 1 17 -2 13 -5z m48 -22 c-3 -3 -11 0
-18 7 -9 10 -8 11 6 5 10 -3 15 -9 12 -12z"/>
<path d="M1687 1669 c7 -7 15 -10 18 -7 3 3 -2 9 -12 12 -14 6 -15 5 -6 -5z"/>
<path d="M2775 2013 c-4 -21 -11 -60 -16 -88 -9 -45 -8 -51 13 -66 12 -10 26
-15 30 -13 4 3 8 1 8 -4 0 -13 127 -92 143 -88 6 1 9 1 5 -1 -5 -3 -8 -22 -8
-44 0 -21 3 -38 8 -38 18 3 26 -2 14 -9 -18 -12 -2 -50 39 -96 45 -52 78 -66
153 -66 56 0 67 3 77 21 9 17 13 19 20 8 5 -8 9 -9 9 -3 0 6 11 16 24 23 13 7
33 30 45 51 22 39 29 67 10 40 -8 -12 -9 -11 -6 5 2 11 9 19 15 17 8 -1 12 12
12 39 0 25 -4 38 -10 34 -6 -4 -10 5 -8 23 3 38 -36 95 -82 120 -34 19 -60 19
-60 1 0 -5 12 -7 28 -4 15 3 20 2 12 -1 -8 -4 -24 -11 -35 -17 -11 -5 -17 -6
-13 -2 4 5 3 14 -3 22 -9 9 -8 13 0 13 6 0 11 5 11 10 0 16 -98 12 -131 -5
-34 -18 -29 -21 -171 73 -57 38 -108 71 -115 75 -8 5 -14 -5 -18 -30z m46 0
c10 -11 10 -14 2 -9 -9 5 -13 0 -13 -14 0 -12 -4 -19 -9 -15 -5 3 -11 -3 -14
-12 -2 -10 -4 -1 -3 19 0 23 3 33 8 25 7 -11 12 -3 9 16 -2 12 6 8 20 -10z
m34 -23 c3 -5 1 -10 -4 -10 -6 0 -11 5 -11 10 0 6 2 10 4 10 3 0 8 -4 11 -10z
m60 -63 c-12 -6 -22 -5 -32 6 -24 24 -6 40 23 20 23 -14 24 -17 9 -26z m-138
-19 c-3 -7 -5 -2 -5 12 0 14 2 19 5 13 2 -7 2 -19 0 -25z m43 28 c0 -2 -7 -6
-15 -10 -8 -3 -15 -1 -15 4 0 6 7 10 15 10 8 0 15 -2 15 -4z m196 -57 c3 -6
-5 -3 -20 6 -14 10 -26 19 -26 22 0 7 39 -17 46 -28z m-216 -15 c0 -2 -9 0
-20 6 -11 6 -20 13 -20 16 0 2 9 0 20 -6 11 -6 20 -13 20 -16z m317 7 c-1 -14
-5 -17 -17 -12 -8 5 -22 11 -30 15 -8 3 -2 4 13 1 19 -4 26 -2 22 5 -3 5 -2
10 4 10 5 0 9 -9 8 -19z m-127 -1 c0 -5 -4 -10 -10 -10 -5 0 -10 5 -10 10 0 6
5 10 10 10 6 0 10 -4 10 -10z m97 -23 c19 -14 5 -29 -20 -22 -16 5 -18 4 -8
-3 8 -6 9 -12 3 -16 -5 -3 -12 1 -16 9 -7 18 7 27 31 19 10 -3 6 2 -9 11 -16
8 -28 18 -28 20 0 6 32 -6 47 -18z m204 6 c13 -16 12 -17 -3 -4 -17 13 -22 21
-14 21 2 0 10 -8 17 -17z m-141 3 c0 -3 -4 -8 -10 -11 -5 -3 -10 -1 -10 4 0 6
5 11 10 11 6 0 10 -2 10 -4z m74 -34 c21 -9 32 -10 40 -2 8 8 7 10 -4 7 -8 -2
-11 -2 -7 1 4 2 3 10 -4 18 -8 10 -8 14 -1 14 18 0 36 -40 23 -53 -7 -7 -5
-19 5 -39 9 -17 14 -50 13 -78 -2 -43 -8 -55 -42 -90 -37 -36 -67 -54 -52 -30
3 5 0 8 -7 6 -39 -12 -69 -16 -64 -8 3 6 -4 12 -16 15 -12 4 -25 2 -29 -4 -4
-7 -9 -4 -12 6 -5 11 -3 14 6 9 8 -6 8 -3 -1 8 -8 9 -19 15 -27 12 -7 -3 -16
0 -20 5 -3 6 -11 9 -16 6 -5 -4 -9 -2 -9 3 0 6 7 12 15 16 9 3 15 0 15 -9 0
-8 5 -15 11 -15 7 0 8 7 3 18 -4 9 -8 42 -9 72 -2 48 1 58 26 83 16 15 49 32
73 39 25 7 43 17 40 22 -3 6 0 4 8 -4 7 -8 26 -21 42 -28z m11 18 c3 -5 1 -10
-4 -10 -6 0 -11 5 -11 10 0 6 2 10 4 10 3 0 8 -4 11 -10z m-360 -10 c3 -5 20
-10 37 -10 41 0 33 -7 -12 -11 -25 -2 -34 0 -32 10 2 9 -3 11 -13 7 -9 -3 -13
-2 -10 4 8 13 22 13 30 0z m453 -28 c20 -30 11 -28 -19 4 -13 15 -18 25 -10
22 8 -2 21 -14 29 -26z m-393 -23 c11 -16 1 -19 -13 -3 -7 8 -8 14 -3 14 5 0
13 -5 16 -11z m395 -26 c0 -15 -2 -16 -10 -3 -8 13 -10 12 -10 -4 0 -11 -3
-17 -6 -13 -9 9 3 37 16 37 5 0 10 -8 10 -17z m-316 -27 c-3 -15 -8 -25 -11
-23 -2 3 -1 17 3 31 3 15 8 25 11 23 2 -3 1 -17 -3 -31z m-37 -11 c-9 -19 -13
-21 -15 -9 -3 13 12 33 25 34 0 0 -4 -11 -10 -25z m363 -25 c0 -11 -4 -20 -9
-20 -5 0 -7 9 -4 20 3 11 7 20 9 20 2 0 4 -9 4 -20z m-10 -44 c0 -3 -4 -8 -10
-11 -5 -3 -10 -1 -10 4 0 6 5 11 10 11 6 0 10 -2 10 -4z m-343 -28 c-3 -8 -6
-5 -6 6 -1 11 2 17 5 13 3 -3 4 -12 1 -19z m345 -15 c-6 -10 -21 -27 -34 -38
-12 -11 -17 -13 -10 -5 18 21 15 34 -5 19 -10 -7 -15 -9 -11 -5 4 5 2 16 -5
25 -10 14 -10 14 4 4 12 -10 18 -10 29 0 10 9 11 9 6 0 -4 -7 -3 -13 2 -13 5
0 12 10 15 22 4 12 9 19 12 16 4 -3 2 -15 -3 -25z m-315 -8 c0 -8 -4 -15 -9
-15 -4 0 -8 7 -8 15 0 8 4 15 8 15 5 0 9 -7 9 -15z m30 -36 c2 -17 -1 -18 -13
-8 -13 11 -10 20 11 29 1 0 1 -9 2 -21z m210 15 c-3 -3 -12 -4 -19 -1 -8 3 -5
6 6 6 11 1 17 -2 13 -5z m-154 -21 c-7 -2 -19 -2 -25 0 -7 3 -2 5 12 5 14 0
19 -2 13 -5z m160 0 c-7 -2 -19 -2 -25 0 -7 3 -2 5 12 5 14 0 19 -2 13 -5z
m-90 -10 c-7 -2 -19 -2 -25 0 -7 3 -2 5 12 5 14 0 19 -2 13 -5z"/>
<path d="M2880 1952 c0 -12 19 -26 26 -19 2 2 -2 10 -11 17 -9 8 -15 8 -15 2z"/>
<path d="M1306 1901 c-3 -5 1 -14 10 -21 11 -10 18 -10 27 -1 9 9 9 14 -3 21
-19 12 -27 12 -34 1z"/>
</g>
</svg>
