<?xml version="1.0" standalone="no"?>
<!DOCTYPE svg PUBLIC "-//W3C//DTD SVG 20010904//EN"
 "http://www.w3.org/TR/2001/REC-SVG-20010904/DTD/svg10.dtd">
<svg version="1.0" xmlns="http://www.w3.org/2000/svg"
 width="500.000000pt" height="500.000000pt" viewBox="0 0 500.000000 500.000000"
 preserveAspectRatio="xMidYMid meet">

<g transform="translate(0.000000,500.000000) scale(0.100000,-0.100000)"
fill="#000000" stroke="none">
<path d="M1205 4738 c-42 -22 -45 -36 -45 -190 l0 -148 -149 0 c-205 0 -201 4
-201 -201 l0 -149 -144 0 c-79 0 -152 -3 -161 -6 -47 -18 -45 61 -45 -1899 l0
-1837 29 -29 29 -29 1377 0 c1493 0 1427 -2 1440 53 3 12 6 83 8 157 l2 135
153 5 c201 7 192 -3 192 201 l0 149 144 0 c79 0 152 3 161 6 40 16 45 50 45
346 l0 283 52 30 c75 43 225 197 274 280 77 132 118 262 130 412 7 81 7 82
-24 112 -32 33 -60 38 -95 19 -36 -19 -44 -38 -51 -118 -26 -314 -223 -558
-526 -651 -60 -19 -98 -23 -190 -23 -136 -1 -207 16 -330 76 -68 34 -103 60
-176 133 -148 147 -214 305 -214 509 0 124 19 206 70 311 94 193 273 339 481
389 132 32 348 13 450 -39 49 -26 99 -22 126 10 l23 26 0 815 0 816 -29 29
-29 29 -1379 0 c-978 -1 -1384 -4 -1398 -12z m2665 -839 l0 -681 -22 6 c-13 3
-53 11 -90 17 l-68 12 0 549 0 549 -25 24 -24 25 -1156 0 -1155 0 0 90 0 90
1270 0 1270 0 0 -681z m-350 -157 l0 -489 -62 -12 c-35 -6 -75 -14 -90 -18
l-28 -5 0 393 c0 389 0 393 -22 416 l-21 23 -1159 0 -1158 0 0 90 0 90 1270 0
1270 0 0 -488z m-350 -230 l0 -368 -70 -48 c-170 -116 -317 -329 -360 -521
-58 -256 -11 -507 133 -720 52 -76 168 -190 241 -235 l56 -35 0 -583 0 -582
-1267 2 -1268 3 -3 1728 -2 1727 1270 0 1270 0 0 -368z m348 -2391 l2 -352
-87 3 -88 3 -3 355 c-1 195 0 360 2 366 3 7 30 5 87 -6 l84 -17 3 -352z m352
194 l0 -195 -90 0 -90 0 2 177 3 178 50 7 c28 4 64 12 80 17 17 5 33 10 38 10
4 1 7 -87 7 -194z"/>
<path d="M1015 3225 c-32 -31 -32 -75 -1 -112 l24 -28 795 0 795 0 26 24 c34
32 36 88 3 119 l-23 22 -798 0 -797 0 -24 -25z"/>
<path d="M1044 2710 c-55 -22 -70 -95 -29 -135 l24 -25 731 0 c714 0 730 0
750 20 42 42 32 111 -20 137 -19 10 -181 13 -730 12 -388 0 -715 -4 -726 -9z"/>
<path d="M1019 2151 c-16 -16 -29 -39 -29 -51 0 -29 26 -76 45 -84 9 -3 342
-6 740 -6 l723 0 27 32 c32 38 29 81 -11 116 l-25 22 -720 0 -721 0 -29 -29z"/>
<path d="M1015 1614 c-34 -37 -33 -78 4 -115 l29 -29 792 0 791 0 24 25 c17
16 25 35 25 60 0 25 -8 44 -25 60 l-24 25 -796 0 -796 0 -24 -26z"/>
<path d="M1015 1075 c-32 -31 -32 -75 -1 -112 l24 -28 779 -3 c428 -1 788 0
801 3 62 15 85 100 39 143 l-23 22 -798 0 -797 0 -24 -25z"/>
<path d="M4362 2947 c-278 -261 -744 -688 -746 -686 -1 2 -69 95 -150 207 -81
111 -156 207 -166 212 -54 29 -124 -12 -124 -71 0 -28 32 -78 187 -290 190
-262 208 -280 263 -271 24 3 897 809 907 836 13 34 7 58 -22 87 -46 46 -81 40
-149 -24z"/>
</g>
</svg>
