<?xml version="1.0" standalone="no"?>
<!DOCTYPE svg PUBLIC "-//W3C//DTD SVG 20010904//EN"
 "http://www.w3.org/TR/2001/REC-SVG-20010904/DTD/svg10.dtd">
<svg version="1.0" xmlns="http://www.w3.org/2000/svg"
 width="225.000000pt" height="225.000000pt" viewBox="0 0 225.000000 225.000000"
 preserveAspectRatio="xMidYMid meet">

<g transform="translate(0.000000,225.000000) scale(0.100000,-0.100000)"
fill="#000000" stroke="none">
<path d="M770 2239 c-388 -17 -681 -124 -751 -274 -18 -38 -19 -82 -19 -848 0
-901 -4 -847 69 -908 92 -76 260 -140 451 -173 134 -23 387 -38 508 -31 l102
7 -45 50 -46 51 -72 -2 c-112 -3 -345 17 -460 39 -180 35 -323 93 -373 153
-23 28 -24 33 -24 203 0 96 2 174 4 174 2 0 41 -18 87 -39 144 -68 348 -110
602 -125 l97 -6 0 54 0 54 -87 7 c-345 25 -601 95 -677 186 -26 30 -26 32 -26
205 0 96 2 174 4 174 2 0 42 -18 88 -40 136 -64 311 -102 553 -120 190 -13
272 -13 284 2 5 7 29 35 52 61 l42 48 -114 -7 c-352 -20 -786 71 -883 186
l-26 32 0 189 0 189 68 -34 c91 -46 213 -83 357 -109 104 -19 156 -22 390 -22
234 0 286 3 390 22 146 26 267 63 358 109 l67 34 0 -179 0 -179 53 -9 52 -8 3
280 c2 176 -1 294 -8 316 -21 73 -125 152 -265 202 -202 72 -467 100 -805 86z
m350 -109 c283 -25 524 -98 594 -180 33 -40 33 -61 -3 -99 -58 -62 -219 -121
-431 -158 -122 -22 -564 -24 -685 -5 -228 37 -427 112 -465 175 -26 42 -25 50
10 90 73 84 321 154 635 180 89 8 236 6 345 -3z"/>
<path d="M1607 1122 c-11 -12 -17 -36 -17 -69 l0 -50 -57 -21 -58 -21 -40 39
c-23 22 -50 40 -61 40 -24 0 -134 -110 -134 -135 0 -9 17 -34 38 -57 l39 -41
-26 -54 -26 -53 -56 0 c-75 0 -84 -11 -84 -112 0 -95 11 -108 89 -108 l51 0
18 -56 18 -56 -41 -44 c-22 -24 -40 -51 -40 -59 0 -9 23 -41 51 -71 64 -67 95
-71 149 -20 l35 33 53 -24 52 -24 0 -50 c0 -84 7 -89 109 -89 60 0 92 4 99 13
6 7 12 37 14 66 l3 53 53 20 54 20 38 -37 c53 -52 79 -50 141 11 67 66 71 86
25 133 -20 20 -36 42 -36 49 0 6 10 32 22 57 22 45 22 45 75 45 76 0 93 20 93
108 0 93 -14 112 -84 112 l-53 0 -21 57 -21 57 39 43 c22 23 40 50 40 60 0 24
-110 133 -134 133 -11 0 -37 -16 -57 -36 l-37 -37 -56 24 -56 23 0 56 c0 78
-14 90 -112 90 -60 0 -78 -4 -91 -18z m201 -355 c62 -40 95 -97 100 -168 7
-97 -39 -183 -120 -225 -41 -21 -116 -28 -164 -15 -52 14 -122 74 -145 125
-48 105 0 243 103 295 63 32 168 27 226 -12z"/>
</g>
</svg>
