<?xml version="1.0" standalone="no"?>
<!DOCTYPE svg PUBLIC "-//W3C//DTD SVG 20010904//EN"
 "http://www.w3.org/TR/2001/REC-SVG-20010904/DTD/svg10.dtd">
<svg version="1.0" xmlns="http://www.w3.org/2000/svg"
 width="360.000000pt" height="360.000000pt" viewBox="0 0 360.000000 360.000000"
 preserveAspectRatio="xMidYMid meet">

<g transform="translate(0.000000,360.000000) scale(0.100000,-0.100000)"
fill="#000000" stroke="none">
<path d="M1075 3131 c-48 -21 -94 -72 -102 -112 -5 -25 -10 -28 -64 -34 -84
-10 -154 -55 -193 -125 l-31 -55 -3 -859 c-3 -951 -4 -929 61 -1003 17 -20 54
-47 82 -59 50 -24 52 -24 442 -24 l393 0 21 -42 c109 -217 309 -349 550 -365
110 -7 216 15 325 68 346 169 467 614 253 934 -107 159 -244 247 -451 290
l-28 5 0 509 c0 547 -2 567 -53 634 -33 43 -109 83 -175 92 -49 6 -54 10 -68
43 -20 49 -51 81 -99 103 -37 17 -72 19 -430 19 -357 0 -393 -2 -430 -19z
m826 -120 c23 -18 24 -25 24 -133 l0 -113 -420 0 -420 0 -3 96 c-3 107 7 145
40 159 13 5 188 9 389 9 347 1 368 0 390 -18z m-941 -199 c0 -36 -5 -54 -20
-67 -11 -10 -20 -29 -20 -42 0 -12 9 -32 20 -43 20 -20 33 -20 565 -20 532 0
545 0 565 20 26 26 26 62 0 85 -15 13 -20 31 -20 67 l0 48 39 0 c50 0 96 -37
110 -87 6 -22 11 -235 11 -529 l0 -492 -77 -17 c-229 -51 -397 -199 -481 -424
-21 -55 -26 -88 -29 -196 l-3 -130 -343 -3 c-188 -1 -357 0 -376 3 -20 4 -47
20 -63 37 l-28 30 0 870 0 870 34 34 c28 28 42 34 75 34 l41 0 0 -48z m1471
-1211 c160 -50 294 -191 344 -365 24 -82 17 -239 -14 -318 -69 -177 -212 -297
-400 -335 -312 -64 -621 192 -621 514 0 141 47 258 146 363 143 151 343 203
545 141z"/>
<path d="M980 2290 c-24 -24 -25 -48 -4 -78 l15 -22 514 0 514 0 15 22 c21 30
20 54 -4 78 -19 19 -33 20 -525 20 -492 0 -506 -1 -525 -20z"/>
<path d="M980 2010 c-11 -11 -20 -29 -20 -40 0 -11 9 -29 20 -40 19 -19 33
-20 374 -20 l355 0 15 22 c21 30 20 54 -4 78 -19 19 -33 20 -370 20 -337 0
-351 -1 -370 -20z"/>
<path d="M2222 1528 c-9 -9 -12 -75 -12 -233 0 -202 2 -223 18 -238 16 -14 44
-17 180 -17 149 0 164 2 182 20 24 24 25 48 4 78 -14 21 -22 22 -140 22 l-124
0 0 168 c0 191 -6 212 -64 212 -17 0 -37 -5 -44 -12z"/>
</g>
</svg>
