<?xml version="1.0" standalone="no"?>
<!DOCTYPE svg PUBLIC "-//W3C//DTD SVG 20010904//EN"
 "http://www.w3.org/TR/2001/REC-SVG-20010904/DTD/svg10.dtd">
<svg version="1.0" xmlns="http://www.w3.org/2000/svg"
 width="200.000000pt" height="200.000000pt" viewBox="0 0 200.000000 200.000000"
 preserveAspectRatio="xMidYMid meet">

<g transform="translate(0.000000,200.000000) scale(0.100000,-0.100000)"
fill="#000000" stroke="none">
<path d="M113 1770 c-13 -5 -32 -24 -43 -42 -19 -32 -20 -50 -20 -729 l0 -696
23 -34 c24 -36 70 -55 110 -45 14 3 82 51 152 106 l127 100 481 0 c442 0 484
2 503 18 37 30 44 57 44 178 l0 117 -59 -54 c-53 -49 -59 -58 -60 -96 l-1 -42
-478 -3 -478 -3 -112 -87 c-62 -49 -117 -88 -122 -88 -7 0 -9 217 -8 642 l3
643 598 3 597 2 0 -187 1 -188 59 65 60 65 0 148 0 149 -34 34 -34 34 -643 -1
c-358 0 -654 -4 -666 -9z"/>
<path d="M1742 1537 c-23 -23 -42 -47 -42 -53 0 -13 160 -156 170 -152 10 4
80 88 80 96 0 4 -4 12 -8 18 -11 17 -143 134 -151 134 -4 0 -26 -19 -49 -43z"/>
<path d="M382 1464 c-25 -18 -29 -60 -8 -90 14 -18 31 -19 383 -22 413 -2 416
-2 421 60 6 68 6 68 -408 68 -315 0 -369 -2 -388 -16z"/>
<path d="M1447 1212 l-187 -207 73 -68 c39 -37 80 -72 89 -77 14 -9 47 23 198
191 100 110 179 206 177 212 -2 6 -39 43 -84 84 l-80 73 -186 -208z"/>
<path d="M376 1154 c-22 -21 -20 -67 2 -87 17 -15 59 -17 394 -17 350 0 376 1
391 18 21 23 22 66 1 86 -13 14 -63 16 -394 16 -331 0 -381 -2 -394 -16z"/>
<path d="M1172 905 c-22 -28 -50 -181 -38 -210 7 -20 26 -18 137 15 48 15 72
28 84 47 l18 27 -79 72 c-43 40 -84 73 -91 74 -6 0 -20 -11 -31 -25z"/>
<path d="M382 854 c-26 -18 -30 -65 -6 -88 13 -14 58 -16 334 -16 l318 0 7 46
c3 26 9 53 12 60 4 12 -48 14 -319 14 -277 0 -327 -2 -346 -16z"/>
</g>
</svg>
